<mxfile host="app.diagrams.net" modified="2022-06-07T13:46:22.723Z" agent="5.0 (Windows NT 10.0; Win64; x64) AppleWebKit/537.36 (KHTML, like Gecko) Chrome/102.0.5005.63 Safari/537.36" etag="zORJpJgSWeCXVqvTOiRI" version="19.0.2" type="github" pages="5">
  <diagram id="5brhn43KuPyeSoSE2ysi" name="システム関連図">
    <mxGraphModel dx="782" dy="473" grid="1" gridSize="10" guides="1" tooltips="1" connect="1" arrows="1" fold="1" page="1" pageScale="1" pageWidth="827" pageHeight="1169" math="0" shadow="0">
      <root>
        <mxCell id="0" />
        <mxCell id="1" parent="0" />
        <mxCell id="8w7j775fS0ShF0HxpGP6-1" value="Player" style="shape=umlActor;verticalLabelPosition=bottom;verticalAlign=top;html=1;outlineConnect=0;" parent="1" vertex="1">
          <mxGeometry x="60" y="90" width="30" height="60" as="geometry" />
        </mxCell>
        <mxCell id="8w7j775fS0ShF0HxpGP6-7" value="" style="rounded=0;whiteSpace=wrap;html=1;" parent="1" vertex="1">
          <mxGeometry x="180" y="50" width="180" height="270" as="geometry" />
        </mxCell>
        <mxCell id="8w7j775fS0ShF0HxpGP6-8" value="ゲームコントローラ" style="rounded=1;whiteSpace=wrap;html=1;" parent="1" vertex="1">
          <mxGeometry x="210" y="90" width="120" height="60" as="geometry" />
        </mxCell>
        <mxCell id="8w7j775fS0ShF0HxpGP6-10" value="将棋盤" style="rounded=1;whiteSpace=wrap;html=1;" parent="1" vertex="1">
          <mxGeometry x="210" y="190" width="120" height="60" as="geometry" />
        </mxCell>
        <mxCell id="8w7j775fS0ShF0HxpGP6-11" value="" style="endArrow=classic;html=1;rounded=0;entryX=0;entryY=0.5;entryDx=0;entryDy=0;" parent="1" source="8w7j775fS0ShF0HxpGP6-1" target="8w7j775fS0ShF0HxpGP6-8" edge="1">
          <mxGeometry width="50" height="50" relative="1" as="geometry">
            <mxPoint x="80" y="245" as="sourcePoint" />
            <mxPoint x="115" y="210" as="targetPoint" />
          </mxGeometry>
        </mxCell>
        <mxCell id="8w7j775fS0ShF0HxpGP6-13" value="ブラウザ環境" style="text;html=1;strokeColor=none;fillColor=none;align=center;verticalAlign=middle;whiteSpace=wrap;rounded=0;" parent="1" vertex="1">
          <mxGeometry x="180" y="50" width="90" height="30" as="geometry" />
        </mxCell>
        <mxCell id="8w7j775fS0ShF0HxpGP6-15" value="" style="endArrow=classic;html=1;rounded=0;" parent="1" target="8w7j775fS0ShF0HxpGP6-10" edge="1">
          <mxGeometry width="50" height="50" relative="1" as="geometry">
            <mxPoint x="90" y="130" as="sourcePoint" />
            <mxPoint x="220" y="130" as="targetPoint" />
          </mxGeometry>
        </mxCell>
      </root>
    </mxGraphModel>
  </diagram>
  <diagram id="IsD5phZp6uDPfnTxv6sI" name="ユースケース図">
    <mxGraphModel dx="1609" dy="473" grid="1" gridSize="10" guides="1" tooltips="1" connect="1" arrows="1" fold="1" page="1" pageScale="1" pageWidth="827" pageHeight="1169" math="0" shadow="0">
      <root>
        <mxCell id="0" />
        <mxCell id="1" parent="0" />
        <mxCell id="wnNuffc919EvTIQaNmJv-1" value="Player" style="shape=umlActor;verticalLabelPosition=bottom;verticalAlign=top;html=1;outlineConnect=0;" vertex="1" parent="1">
          <mxGeometry x="-760" y="80" width="30" height="60" as="geometry" />
        </mxCell>
        <mxCell id="wnNuffc919EvTIQaNmJv-2" value="" style="edgeStyle=orthogonalEdgeStyle;rounded=0;orthogonalLoop=1;jettySize=auto;html=1;" edge="1" parent="1" source="wnNuffc919EvTIQaNmJv-3" target="wnNuffc919EvTIQaNmJv-8">
          <mxGeometry relative="1" as="geometry" />
        </mxCell>
        <mxCell id="wnNuffc919EvTIQaNmJv-3" value="将棋を遊ぶ" style="rounded=1;whiteSpace=wrap;html=1;" vertex="1" parent="1">
          <mxGeometry x="-680" y="160" width="120" height="60" as="geometry" />
        </mxCell>
        <mxCell id="wnNuffc919EvTIQaNmJv-4" value="" style="edgeStyle=orthogonalEdgeStyle;rounded=0;orthogonalLoop=1;jettySize=auto;html=1;" edge="1" parent="1" source="wnNuffc919EvTIQaNmJv-6" target="wnNuffc919EvTIQaNmJv-10">
          <mxGeometry relative="1" as="geometry" />
        </mxCell>
        <mxCell id="wnNuffc919EvTIQaNmJv-5" value="" style="edgeStyle=orthogonalEdgeStyle;rounded=0;orthogonalLoop=1;jettySize=auto;html=1;" edge="1" parent="1" source="wnNuffc919EvTIQaNmJv-6" target="wnNuffc919EvTIQaNmJv-10">
          <mxGeometry relative="1" as="geometry" />
        </mxCell>
        <mxCell id="wnNuffc919EvTIQaNmJv-6" value="駒を持つ" style="rounded=1;whiteSpace=wrap;html=1;" vertex="1" parent="1">
          <mxGeometry x="-360" y="250" width="120" height="60" as="geometry" />
        </mxCell>
        <mxCell id="wnNuffc919EvTIQaNmJv-7" value="" style="edgeStyle=orthogonalEdgeStyle;rounded=0;orthogonalLoop=1;jettySize=auto;html=1;" edge="1" parent="1" source="wnNuffc919EvTIQaNmJv-8" target="wnNuffc919EvTIQaNmJv-14">
          <mxGeometry relative="1" as="geometry" />
        </mxCell>
        <mxCell id="wnNuffc919EvTIQaNmJv-8" value="手を指す" style="rounded=1;whiteSpace=wrap;html=1;" vertex="1" parent="1">
          <mxGeometry x="-520" y="160" width="120" height="60" as="geometry" />
        </mxCell>
        <mxCell id="wnNuffc919EvTIQaNmJv-9" value="" style="edgeStyle=orthogonalEdgeStyle;rounded=0;orthogonalLoop=1;jettySize=auto;html=1;" edge="1" parent="1" source="wnNuffc919EvTIQaNmJv-10" target="wnNuffc919EvTIQaNmJv-11">
          <mxGeometry relative="1" as="geometry" />
        </mxCell>
        <mxCell id="wnNuffc919EvTIQaNmJv-10" value="駒を動かす" style="rounded=1;whiteSpace=wrap;html=1;" vertex="1" parent="1">
          <mxGeometry x="-360" y="340" width="120" height="60" as="geometry" />
        </mxCell>
        <mxCell id="wnNuffc919EvTIQaNmJv-11" value="相手の手を待つ" style="rounded=1;whiteSpace=wrap;html=1;" vertex="1" parent="1">
          <mxGeometry x="-360" y="430" width="120" height="60" as="geometry" />
        </mxCell>
        <mxCell id="wnNuffc919EvTIQaNmJv-12" value="" style="endArrow=classic;html=1;rounded=0;exitX=0.5;exitY=1;exitDx=0;exitDy=0;" edge="1" parent="1" source="wnNuffc919EvTIQaNmJv-11">
          <mxGeometry width="50" height="50" relative="1" as="geometry">
            <mxPoint x="-310" y="510" as="sourcePoint" />
            <mxPoint x="-300" y="150" as="targetPoint" />
            <Array as="points">
              <mxPoint x="-300" y="520" />
              <mxPoint x="-200" y="520" />
              <mxPoint x="-200" y="120" />
              <mxPoint x="-300" y="120" />
            </Array>
          </mxGeometry>
        </mxCell>
        <mxCell id="wnNuffc919EvTIQaNmJv-13" value="" style="edgeStyle=orthogonalEdgeStyle;rounded=0;orthogonalLoop=1;jettySize=auto;html=1;" edge="1" parent="1" source="wnNuffc919EvTIQaNmJv-14" target="wnNuffc919EvTIQaNmJv-6">
          <mxGeometry relative="1" as="geometry" />
        </mxCell>
        <mxCell id="wnNuffc919EvTIQaNmJv-14" value="自分の手番" style="rounded=1;whiteSpace=wrap;html=1;" vertex="1" parent="1">
          <mxGeometry x="-360" y="160" width="120" height="60" as="geometry" />
        </mxCell>
      </root>
    </mxGraphModel>
  </diagram>
  <diagram id="EdKYnFswlNVOaTXJdNSI" name="オブジェクト図">
    <mxGraphModel dx="782" dy="473" grid="1" gridSize="10" guides="1" tooltips="1" connect="1" arrows="1" fold="1" page="1" pageScale="1" pageWidth="827" pageHeight="1169" math="0" shadow="0">
      <root>
        <mxCell id="0" />
        <mxCell id="1" parent="0" />
      </root>
    </mxGraphModel>
  </diagram>
  <diagram id="v-nBt0b2_UI1mvEjTLc7" name="ドメインモデル図">
    <mxGraphModel dx="782" dy="473" grid="1" gridSize="10" guides="1" tooltips="1" connect="1" arrows="1" fold="1" page="1" pageScale="1" pageWidth="827" pageHeight="1169" math="0" shadow="0">
      <root>
        <mxCell id="0" />
        <mxCell id="1" parent="0" />
        <mxCell id="XbAJ6j573G0kwpbqruMZ-1" value="Piece" style="swimlane;fontStyle=1;align=center;verticalAlign=top;childLayout=stackLayout;horizontal=1;startSize=26;horizontalStack=0;resizeParent=1;resizeParentMax=0;resizeLast=0;collapsible=1;marginBottom=0;" vertex="1" parent="1">
          <mxGeometry x="620" y="132" width="220" height="108" as="geometry" />
        </mxCell>
        <mxCell id="XbAJ6j573G0kwpbqruMZ-2" value="+ master: PlayerType&#xa;+ can_move_area: PieceMoveArea&#xa;+ is_promotionable: bool&#xa;+ is_promoted: bool" style="text;strokeColor=none;fillColor=none;align=left;verticalAlign=top;spacingLeft=4;spacingRight=4;overflow=hidden;rotatable=0;points=[[0,0.5],[1,0.5]];portConstraint=eastwest;" vertex="1" parent="XbAJ6j573G0kwpbqruMZ-1">
          <mxGeometry y="26" width="220" height="74" as="geometry" />
        </mxCell>
        <mxCell id="XbAJ6j573G0kwpbqruMZ-3" value="" style="line;strokeWidth=1;fillColor=none;align=left;verticalAlign=middle;spacingTop=-1;spacingLeft=3;spacingRight=3;rotatable=0;labelPosition=right;points=[];portConstraint=eastwest;" vertex="1" parent="XbAJ6j573G0kwpbqruMZ-1">
          <mxGeometry y="100" width="220" height="8" as="geometry" />
        </mxCell>
        <mxCell id="XbAJ6j573G0kwpbqruMZ-6" value="ShogiBoard" style="swimlane;fontStyle=1;align=center;verticalAlign=top;childLayout=stackLayout;horizontal=1;startSize=26;horizontalStack=0;resizeParent=1;resizeParentMax=0;resizeLast=0;collapsible=1;marginBottom=0;" vertex="1" parent="1">
          <mxGeometry x="40" y="40" width="210" height="78" as="geometry" />
        </mxCell>
        <mxCell id="XbAJ6j573G0kwpbqruMZ-7" value="+ diagram: [SquarePosition: Square]&#xa;+ initial_diagram : [[Square]]" style="text;strokeColor=none;fillColor=none;align=left;verticalAlign=top;spacingLeft=4;spacingRight=4;overflow=hidden;rotatable=0;points=[[0,0.5],[1,0.5]];portConstraint=eastwest;" vertex="1" parent="XbAJ6j573G0kwpbqruMZ-6">
          <mxGeometry y="26" width="210" height="44" as="geometry" />
        </mxCell>
        <mxCell id="XbAJ6j573G0kwpbqruMZ-8" value="" style="line;strokeWidth=1;fillColor=none;align=left;verticalAlign=middle;spacingTop=-1;spacingLeft=3;spacingRight=3;rotatable=0;labelPosition=right;points=[];portConstraint=eastwest;" vertex="1" parent="XbAJ6j573G0kwpbqruMZ-6">
          <mxGeometry y="70" width="210" height="8" as="geometry" />
        </mxCell>
        <mxCell id="FmirDSp3LXJgVUJYbPXi-1" value="Square" style="swimlane;fontStyle=1;align=center;verticalAlign=top;childLayout=stackLayout;horizontal=1;startSize=26;horizontalStack=0;resizeParent=1;resizeParentMax=0;resizeLast=0;collapsible=1;marginBottom=0;" vertex="1" parent="1">
          <mxGeometry x="40" y="148" width="160" height="60" as="geometry" />
        </mxCell>
        <mxCell id="FmirDSp3LXJgVUJYbPXi-2" value="+ value: Piece | nulll" style="text;strokeColor=none;fillColor=none;align=left;verticalAlign=top;spacingLeft=4;spacingRight=4;overflow=hidden;rotatable=0;points=[[0,0.5],[1,0.5]];portConstraint=eastwest;" vertex="1" parent="FmirDSp3LXJgVUJYbPXi-1">
          <mxGeometry y="26" width="160" height="26" as="geometry" />
        </mxCell>
        <mxCell id="FmirDSp3LXJgVUJYbPXi-3" value="" style="line;strokeWidth=1;fillColor=none;align=left;verticalAlign=middle;spacingTop=-1;spacingLeft=3;spacingRight=3;rotatable=0;labelPosition=right;points=[];portConstraint=eastwest;" vertex="1" parent="FmirDSp3LXJgVUJYbPXi-1">
          <mxGeometry y="52" width="160" height="8" as="geometry" />
        </mxCell>
        <mxCell id="FmirDSp3LXJgVUJYbPXi-5" value="Classname" style="swimlane;fontStyle=1;align=center;verticalAlign=top;childLayout=stackLayout;horizontal=1;startSize=26;horizontalStack=0;resizeParent=1;resizeParentMax=0;resizeLast=0;collapsible=1;marginBottom=0;" vertex="1" parent="1">
          <mxGeometry x="600" y="480" width="160" height="86" as="geometry" />
        </mxCell>
        <mxCell id="FmirDSp3LXJgVUJYbPXi-6" value="+ field: type" style="text;strokeColor=none;fillColor=none;align=left;verticalAlign=top;spacingLeft=4;spacingRight=4;overflow=hidden;rotatable=0;points=[[0,0.5],[1,0.5]];portConstraint=eastwest;" vertex="1" parent="FmirDSp3LXJgVUJYbPXi-5">
          <mxGeometry y="26" width="160" height="26" as="geometry" />
        </mxCell>
        <mxCell id="FmirDSp3LXJgVUJYbPXi-7" value="" style="line;strokeWidth=1;fillColor=none;align=left;verticalAlign=middle;spacingTop=-1;spacingLeft=3;spacingRight=3;rotatable=0;labelPosition=right;points=[];portConstraint=eastwest;" vertex="1" parent="FmirDSp3LXJgVUJYbPXi-5">
          <mxGeometry y="52" width="160" height="8" as="geometry" />
        </mxCell>
        <mxCell id="FmirDSp3LXJgVUJYbPXi-8" value="+ method(type): type" style="text;strokeColor=none;fillColor=none;align=left;verticalAlign=top;spacingLeft=4;spacingRight=4;overflow=hidden;rotatable=0;points=[[0,0.5],[1,0.5]];portConstraint=eastwest;" vertex="1" parent="FmirDSp3LXJgVUJYbPXi-5">
          <mxGeometry y="60" width="160" height="26" as="geometry" />
        </mxCell>
        <mxCell id="FmirDSp3LXJgVUJYbPXi-9" value="PieceMoveArea" style="swimlane;fontStyle=1;align=center;verticalAlign=top;childLayout=stackLayout;horizontal=1;startSize=26;horizontalStack=0;resizeParent=1;resizeParentMax=0;resizeLast=0;collapsible=1;marginBottom=0;" vertex="1" parent="1">
          <mxGeometry x="720" y="40" width="160" height="60" as="geometry" />
        </mxCell>
        <mxCell id="FmirDSp3LXJgVUJYbPXi-10" value="+ value: [char]" style="text;strokeColor=none;fillColor=none;align=left;verticalAlign=top;spacingLeft=4;spacingRight=4;overflow=hidden;rotatable=0;points=[[0,0.5],[1,0.5]];portConstraint=eastwest;" vertex="1" parent="FmirDSp3LXJgVUJYbPXi-9">
          <mxGeometry y="26" width="160" height="26" as="geometry" />
        </mxCell>
        <mxCell id="FmirDSp3LXJgVUJYbPXi-11" value="" style="line;strokeWidth=1;fillColor=none;align=left;verticalAlign=middle;spacingTop=-1;spacingLeft=3;spacingRight=3;rotatable=0;labelPosition=right;points=[];portConstraint=eastwest;" vertex="1" parent="FmirDSp3LXJgVUJYbPXi-9">
          <mxGeometry y="52" width="160" height="8" as="geometry" />
        </mxCell>
        <mxCell id="FmirDSp3LXJgVUJYbPXi-14" value="Turn" style="swimlane;fontStyle=1;align=center;verticalAlign=top;childLayout=stackLayout;horizontal=1;startSize=26;horizontalStack=0;resizeParent=1;resizeParentMax=0;resizeLast=0;collapsible=1;marginBottom=0;" vertex="1" parent="1">
          <mxGeometry x="40" y="280" width="160" height="60" as="geometry" />
        </mxCell>
        <mxCell id="FmirDSp3LXJgVUJYbPXi-15" value="+ value: PlayerType" style="text;strokeColor=none;fillColor=none;align=left;verticalAlign=top;spacingLeft=4;spacingRight=4;overflow=hidden;rotatable=0;points=[[0,0.5],[1,0.5]];portConstraint=eastwest;" vertex="1" parent="FmirDSp3LXJgVUJYbPXi-14">
          <mxGeometry y="26" width="160" height="26" as="geometry" />
        </mxCell>
        <mxCell id="FmirDSp3LXJgVUJYbPXi-16" value="" style="line;strokeWidth=1;fillColor=none;align=left;verticalAlign=middle;spacingTop=-1;spacingLeft=3;spacingRight=3;rotatable=0;labelPosition=right;points=[];portConstraint=eastwest;" vertex="1" parent="FmirDSp3LXJgVUJYbPXi-14">
          <mxGeometry y="52" width="160" height="8" as="geometry" />
        </mxCell>
        <mxCell id="FmirDSp3LXJgVUJYbPXi-18" value="PieceInHand" style="swimlane;fontStyle=1;align=center;verticalAlign=top;childLayout=stackLayout;horizontal=1;startSize=26;horizontalStack=0;resizeParent=1;resizeParentMax=0;resizeLast=0;collapsible=1;marginBottom=0;" vertex="1" parent="1">
          <mxGeometry x="40" y="460" width="160" height="78" as="geometry" />
        </mxCell>
        <mxCell id="FmirDSp3LXJgVUJYbPXi-19" value="+ value: [Piece]&#xa;+ master: PlayerType" style="text;strokeColor=none;fillColor=none;align=left;verticalAlign=top;spacingLeft=4;spacingRight=4;overflow=hidden;rotatable=0;points=[[0,0.5],[1,0.5]];portConstraint=eastwest;" vertex="1" parent="FmirDSp3LXJgVUJYbPXi-18">
          <mxGeometry y="26" width="160" height="44" as="geometry" />
        </mxCell>
        <mxCell id="FmirDSp3LXJgVUJYbPXi-20" value="" style="line;strokeWidth=1;fillColor=none;align=left;verticalAlign=middle;spacingTop=-1;spacingLeft=3;spacingRight=3;rotatable=0;labelPosition=right;points=[];portConstraint=eastwest;" vertex="1" parent="FmirDSp3LXJgVUJYbPXi-18">
          <mxGeometry y="70" width="160" height="8" as="geometry" />
        </mxCell>
        <mxCell id="FmirDSp3LXJgVUJYbPXi-23" value="Player" style="swimlane;fontStyle=1;align=center;verticalAlign=top;childLayout=stackLayout;horizontal=1;startSize=26;horizontalStack=0;resizeParent=1;resizeParentMax=0;resizeLast=0;collapsible=1;marginBottom=0;" vertex="1" parent="1">
          <mxGeometry x="40" y="373" width="160" height="60" as="geometry" />
        </mxCell>
        <mxCell id="FmirDSp3LXJgVUJYbPXi-24" value="+ type: PlayerType" style="text;strokeColor=none;fillColor=none;align=left;verticalAlign=top;spacingLeft=4;spacingRight=4;overflow=hidden;rotatable=0;points=[[0,0.5],[1,0.5]];portConstraint=eastwest;" vertex="1" parent="FmirDSp3LXJgVUJYbPXi-23">
          <mxGeometry y="26" width="160" height="26" as="geometry" />
        </mxCell>
        <mxCell id="FmirDSp3LXJgVUJYbPXi-25" value="" style="line;strokeWidth=1;fillColor=none;align=left;verticalAlign=middle;spacingTop=-1;spacingLeft=3;spacingRight=3;rotatable=0;labelPosition=right;points=[];portConstraint=eastwest;" vertex="1" parent="FmirDSp3LXJgVUJYbPXi-23">
          <mxGeometry y="52" width="160" height="8" as="geometry" />
        </mxCell>
        <mxCell id="FmirDSp3LXJgVUJYbPXi-29" value="PlayerType" style="swimlane;fontStyle=1;align=center;verticalAlign=top;childLayout=stackLayout;horizontal=1;startSize=26;horizontalStack=0;resizeParent=1;resizeParentMax=0;resizeLast=0;collapsible=1;marginBottom=0;" vertex="1" parent="1">
          <mxGeometry x="220" y="313" width="160" height="60" as="geometry" />
        </mxCell>
        <mxCell id="FmirDSp3LXJgVUJYbPXi-30" value="+ value: &quot;Sente&quot; | &quot;Gote&quot;" style="text;strokeColor=none;fillColor=none;align=left;verticalAlign=top;spacingLeft=4;spacingRight=4;overflow=hidden;rotatable=0;points=[[0,0.5],[1,0.5]];portConstraint=eastwest;" vertex="1" parent="FmirDSp3LXJgVUJYbPXi-29">
          <mxGeometry y="26" width="160" height="26" as="geometry" />
        </mxCell>
        <mxCell id="FmirDSp3LXJgVUJYbPXi-31" value="" style="line;strokeWidth=1;fillColor=none;align=left;verticalAlign=middle;spacingTop=-1;spacingLeft=3;spacingRight=3;rotatable=0;labelPosition=right;points=[];portConstraint=eastwest;" vertex="1" parent="FmirDSp3LXJgVUJYbPXi-29">
          <mxGeometry y="52" width="160" height="8" as="geometry" />
        </mxCell>
        <mxCell id="TI0RgdgzG0prYZ5c8f2Q-1" value="Classname" style="swimlane;fontStyle=1;align=center;verticalAlign=top;childLayout=stackLayout;horizontal=1;startSize=26;horizontalStack=0;resizeParent=1;resizeParentMax=0;resizeLast=0;collapsible=1;marginBottom=0;" vertex="1" parent="1">
          <mxGeometry x="530" y="290" width="160" height="60" as="geometry" />
        </mxCell>
        <mxCell id="TI0RgdgzG0prYZ5c8f2Q-2" value="+ field: type" style="text;strokeColor=none;fillColor=none;align=left;verticalAlign=top;spacingLeft=4;spacingRight=4;overflow=hidden;rotatable=0;points=[[0,0.5],[1,0.5]];portConstraint=eastwest;" vertex="1" parent="TI0RgdgzG0prYZ5c8f2Q-1">
          <mxGeometry y="26" width="160" height="26" as="geometry" />
        </mxCell>
        <mxCell id="TI0RgdgzG0prYZ5c8f2Q-3" value="" style="line;strokeWidth=1;fillColor=none;align=left;verticalAlign=middle;spacingTop=-1;spacingLeft=3;spacingRight=3;rotatable=0;labelPosition=right;points=[];portConstraint=eastwest;" vertex="1" parent="TI0RgdgzG0prYZ5c8f2Q-1">
          <mxGeometry y="52" width="160" height="8" as="geometry" />
        </mxCell>
        <mxCell id="TI0RgdgzG0prYZ5c8f2Q-5" value="Move" style="swimlane;fontStyle=1;align=center;verticalAlign=top;childLayout=stackLayout;horizontal=1;startSize=26;horizontalStack=0;resizeParent=1;resizeParentMax=0;resizeLast=0;collapsible=1;marginBottom=0;" vertex="1" parent="1">
          <mxGeometry x="470" y="26" width="160" height="88" as="geometry" />
        </mxCell>
        <mxCell id="TI0RgdgzG0prYZ5c8f2Q-6" value="+ player_type: PlayerType&#xa;+ from: SquarePosition&#xa;+ to: SquarePosition" style="text;strokeColor=none;fillColor=none;align=left;verticalAlign=top;spacingLeft=4;spacingRight=4;overflow=hidden;rotatable=0;points=[[0,0.5],[1,0.5]];portConstraint=eastwest;" vertex="1" parent="TI0RgdgzG0prYZ5c8f2Q-5">
          <mxGeometry y="26" width="160" height="54" as="geometry" />
        </mxCell>
        <mxCell id="TI0RgdgzG0prYZ5c8f2Q-7" value="" style="line;strokeWidth=1;fillColor=none;align=left;verticalAlign=middle;spacingTop=-1;spacingLeft=3;spacingRight=3;rotatable=0;labelPosition=right;points=[];portConstraint=eastwest;" vertex="1" parent="TI0RgdgzG0prYZ5c8f2Q-5">
          <mxGeometry y="80" width="160" height="8" as="geometry" />
        </mxCell>
        <mxCell id="TI0RgdgzG0prYZ5c8f2Q-8" value="SquarePosition" style="swimlane;fontStyle=1;align=center;verticalAlign=top;childLayout=stackLayout;horizontal=1;startSize=26;horizontalStack=0;resizeParent=1;resizeParentMax=0;resizeLast=0;collapsible=1;marginBottom=0;" vertex="1" parent="1">
          <mxGeometry x="280" y="148" width="180" height="60" as="geometry" />
        </mxCell>
        <mxCell id="TI0RgdgzG0prYZ5c8f2Q-9" value="+ value: SquarePositionType" style="text;strokeColor=none;fillColor=none;align=left;verticalAlign=top;spacingLeft=4;spacingRight=4;overflow=hidden;rotatable=0;points=[[0,0.5],[1,0.5]];portConstraint=eastwest;" vertex="1" parent="TI0RgdgzG0prYZ5c8f2Q-8">
          <mxGeometry y="26" width="180" height="26" as="geometry" />
        </mxCell>
        <mxCell id="TI0RgdgzG0prYZ5c8f2Q-10" value="" style="line;strokeWidth=1;fillColor=none;align=left;verticalAlign=middle;spacingTop=-1;spacingLeft=3;spacingRight=3;rotatable=0;labelPosition=right;points=[];portConstraint=eastwest;" vertex="1" parent="TI0RgdgzG0prYZ5c8f2Q-8">
          <mxGeometry y="52" width="180" height="8" as="geometry" />
        </mxCell>
        <mxCell id="TI0RgdgzG0prYZ5c8f2Q-12" value="SquarePositionType" style="swimlane;fontStyle=1;align=center;verticalAlign=top;childLayout=stackLayout;horizontal=1;startSize=26;horizontalStack=0;resizeParent=1;resizeParentMax=0;resizeLast=0;collapsible=1;marginBottom=0;" vertex="1" parent="1">
          <mxGeometry x="280" y="64" width="160" height="68" as="geometry" />
        </mxCell>
        <mxCell id="TI0RgdgzG0prYZ5c8f2Q-13" value="+ file: char&#xa;+ rank: char" style="text;strokeColor=none;fillColor=none;align=left;verticalAlign=top;spacingLeft=4;spacingRight=4;overflow=hidden;rotatable=0;points=[[0,0.5],[1,0.5]];portConstraint=eastwest;" vertex="1" parent="TI0RgdgzG0prYZ5c8f2Q-12">
          <mxGeometry y="26" width="160" height="34" as="geometry" />
        </mxCell>
        <mxCell id="TI0RgdgzG0prYZ5c8f2Q-14" value="" style="line;strokeWidth=1;fillColor=none;align=left;verticalAlign=middle;spacingTop=-1;spacingLeft=3;spacingRight=3;rotatable=0;labelPosition=right;points=[];portConstraint=eastwest;" vertex="1" parent="TI0RgdgzG0prYZ5c8f2Q-12">
          <mxGeometry y="60" width="160" height="8" as="geometry" />
        </mxCell>
      </root>
    </mxGraphModel>
  </diagram>
  <diagram id="Z2bBXI5WRvJnzAV_PA-n" name="状態遷移図(ゲーム中)">
    <mxGraphModel dx="294" dy="464" grid="1" gridSize="10" guides="1" tooltips="1" connect="1" arrows="1" fold="1" page="1" pageScale="1" pageWidth="827" pageHeight="1169" math="0" shadow="0">
      <root>
        <mxCell id="0" />
        <mxCell id="1" parent="0" />
        <mxCell id="OIcEGUIWXptg4rH3baDo-5" value="" style="edgeStyle=orthogonalEdgeStyle;rounded=0;orthogonalLoop=1;jettySize=auto;html=1;" edge="1" parent="1" source="OIcEGUIWXptg4rH3baDo-1" target="OIcEGUIWXptg4rH3baDo-4">
          <mxGeometry relative="1" as="geometry" />
        </mxCell>
        <mxCell id="OIcEGUIWXptg4rH3baDo-1" value="ゲーム開始" style="rounded=1;whiteSpace=wrap;html=1;" vertex="1" parent="1">
          <mxGeometry x="80" y="40" width="120" height="60" as="geometry" />
        </mxCell>
        <mxCell id="OIcEGUIWXptg4rH3baDo-9" value="" style="edgeStyle=orthogonalEdgeStyle;rounded=0;orthogonalLoop=1;jettySize=auto;html=1;" edge="1" parent="1" source="OIcEGUIWXptg4rH3baDo-4" target="OIcEGUIWXptg4rH3baDo-8">
          <mxGeometry relative="1" as="geometry" />
        </mxCell>
        <mxCell id="OIcEGUIWXptg4rH3baDo-4" value="手番決め" style="whiteSpace=wrap;html=1;rounded=1;fillColor=#d5e8d4;strokeColor=#82b366;" vertex="1" parent="1">
          <mxGeometry x="80" y="180" width="120" height="60" as="geometry" />
        </mxCell>
        <mxCell id="OIcEGUIWXptg4rH3baDo-11" value="" style="edgeStyle=orthogonalEdgeStyle;rounded=0;orthogonalLoop=1;jettySize=auto;html=1;entryX=0;entryY=0.5;entryDx=0;entryDy=0;" edge="1" parent="1" source="OIcEGUIWXptg4rH3baDo-8" target="OQrwDb91JY-md372_E8U-19">
          <mxGeometry relative="1" as="geometry">
            <mxPoint x="310" y="350" as="targetPoint" />
          </mxGeometry>
        </mxCell>
        <mxCell id="OIcEGUIWXptg4rH3baDo-8" value="手番のループ開始" style="whiteSpace=wrap;html=1;rounded=1;fillColor=#d5e8d4;strokeColor=#82b366;" vertex="1" parent="1">
          <mxGeometry x="80" y="320" width="120" height="60" as="geometry" />
        </mxCell>
        <mxCell id="OIcEGUIWXptg4rH3baDo-13" value="" style="edgeStyle=orthogonalEdgeStyle;rounded=0;orthogonalLoop=1;jettySize=auto;html=1;startArrow=none;" edge="1" parent="1" source="OQrwDb91JY-md372_E8U-19" target="OIcEGUIWXptg4rH3baDo-12">
          <mxGeometry relative="1" as="geometry">
            <mxPoint x="370" y="350" as="sourcePoint" />
          </mxGeometry>
        </mxCell>
        <mxCell id="OQrwDb91JY-md372_E8U-2" value="" style="edgeStyle=orthogonalEdgeStyle;rounded=0;orthogonalLoop=1;jettySize=auto;html=1;" edge="1" parent="1" source="OIcEGUIWXptg4rH3baDo-12" target="OQrwDb91JY-md372_E8U-1">
          <mxGeometry relative="1" as="geometry" />
        </mxCell>
        <mxCell id="OIcEGUIWXptg4rH3baDo-12" value="着手待ち" style="whiteSpace=wrap;html=1;rounded=1;fillColor=#d5e8d4;strokeColor=#82b366;" vertex="1" parent="1">
          <mxGeometry x="480" y="320" width="120" height="60" as="geometry" />
        </mxCell>
        <mxCell id="OQrwDb91JY-md372_E8U-6" value="" style="edgeStyle=orthogonalEdgeStyle;rounded=0;orthogonalLoop=1;jettySize=auto;html=1;" edge="1" parent="1" source="OQrwDb91JY-md372_E8U-1">
          <mxGeometry relative="1" as="geometry">
            <mxPoint x="540" y="590" as="targetPoint" />
          </mxGeometry>
        </mxCell>
        <mxCell id="OQrwDb91JY-md372_E8U-1" value="駒を選択" style="whiteSpace=wrap;html=1;rounded=1;fillColor=#fff2cc;strokeColor=#d6b656;" vertex="1" parent="1">
          <mxGeometry x="480" y="460" width="120" height="60" as="geometry" />
        </mxCell>
        <mxCell id="OQrwDb91JY-md372_E8U-10" value="" style="edgeStyle=orthogonalEdgeStyle;rounded=0;orthogonalLoop=1;jettySize=auto;html=1;" edge="1" parent="1" target="OQrwDb91JY-md372_E8U-9">
          <mxGeometry relative="1" as="geometry">
            <mxPoint x="470" y="630" as="sourcePoint" />
          </mxGeometry>
        </mxCell>
        <mxCell id="OQrwDb91JY-md372_E8U-7" value="" style="endArrow=classic;html=1;rounded=0;exitX=1;exitY=0.5;exitDx=0;exitDy=0;entryX=1;entryY=0.5;entryDx=0;entryDy=0;" edge="1" parent="1" target="OIcEGUIWXptg4rH3baDo-12">
          <mxGeometry width="50" height="50" relative="1" as="geometry">
            <mxPoint x="610" y="630" as="sourcePoint" />
            <mxPoint x="690" y="410" as="targetPoint" />
            <Array as="points">
              <mxPoint x="680" y="630" />
              <mxPoint x="680" y="350" />
            </Array>
          </mxGeometry>
        </mxCell>
        <mxCell id="OQrwDb91JY-md372_E8U-8" value="キャンセル" style="text;html=1;align=center;verticalAlign=middle;resizable=0;points=[];autosize=1;strokeColor=none;fillColor=none;" vertex="1" parent="1">
          <mxGeometry x="600" y="610" width="80" height="20" as="geometry" />
        </mxCell>
        <mxCell id="OQrwDb91JY-md372_E8U-12" value="" style="edgeStyle=orthogonalEdgeStyle;rounded=0;orthogonalLoop=1;jettySize=auto;html=1;" edge="1" parent="1" source="OQrwDb91JY-md372_E8U-9" target="OQrwDb91JY-md372_E8U-11">
          <mxGeometry relative="1" as="geometry" />
        </mxCell>
        <mxCell id="OQrwDb91JY-md372_E8U-9" value="駒を動かす" style="whiteSpace=wrap;html=1;rounded=1;fillColor=#fff2cc;strokeColor=#d6b656;" vertex="1" parent="1">
          <mxGeometry x="280" y="600" width="120" height="60" as="geometry" />
        </mxCell>
        <mxCell id="OQrwDb91JY-md372_E8U-13" style="edgeStyle=orthogonalEdgeStyle;rounded=0;orthogonalLoop=1;jettySize=auto;html=1;entryX=0.5;entryY=1;entryDx=0;entryDy=0;" edge="1" parent="1" source="OQrwDb91JY-md372_E8U-11" target="OQrwDb91JY-md372_E8U-19">
          <mxGeometry relative="1" as="geometry">
            <mxPoint x="340" y="410" as="targetPoint" />
          </mxGeometry>
        </mxCell>
        <mxCell id="OQrwDb91JY-md372_E8U-11" value="手番を渡す" style="whiteSpace=wrap;html=1;rounded=1;fillColor=#d5e8d4;strokeColor=#82b366;" vertex="1" parent="1">
          <mxGeometry x="280" y="460" width="120" height="60" as="geometry" />
        </mxCell>
        <mxCell id="OQrwDb91JY-md372_E8U-15" value="詰み&lt;br&gt;(ゲーム終了)" style="rounded=1;whiteSpace=wrap;html=1;" vertex="1" parent="1">
          <mxGeometry x="80" y="460" width="120" height="60" as="geometry" />
        </mxCell>
        <mxCell id="OQrwDb91JY-md372_E8U-17" value="" style="endArrow=classic;html=1;rounded=0;exitX=0;exitY=1;exitDx=0;exitDy=0;entryX=1;entryY=0;entryDx=0;entryDy=0;" edge="1" parent="1" source="OQrwDb91JY-md372_E8U-19" target="OQrwDb91JY-md372_E8U-15">
          <mxGeometry width="50" height="50" relative="1" as="geometry">
            <mxPoint x="310" y="290" as="sourcePoint" />
            <mxPoint x="330" y="440" as="targetPoint" />
          </mxGeometry>
        </mxCell>
        <mxCell id="OQrwDb91JY-md372_E8U-19" value="勝敗判定&lt;br&gt;(詰みの確認" style="rhombus;whiteSpace=wrap;html=1;fillColor=#dae8fc;strokeColor=#6c8ebf;" vertex="1" parent="1">
          <mxGeometry x="275" y="310" width="130" height="80" as="geometry" />
        </mxCell>
        <mxCell id="OQrwDb91JY-md372_E8U-22" value="指せる位置の表示" style="rhombus;whiteSpace=wrap;html=1;fillColor=#dae8fc;strokeColor=#6c8ebf;" vertex="1" parent="1">
          <mxGeometry x="475" y="590" width="130" height="80" as="geometry" />
        </mxCell>
        <mxCell id="OQrwDb91JY-md372_E8U-23" value="詰んでない" style="text;html=1;align=center;verticalAlign=middle;resizable=0;points=[];autosize=1;strokeColor=none;fillColor=none;" vertex="1" parent="1">
          <mxGeometry x="374" y="360" width="80" height="20" as="geometry" />
        </mxCell>
        <mxCell id="OQrwDb91JY-md372_E8U-24" value="詰み" style="text;html=1;align=center;verticalAlign=middle;resizable=0;points=[];autosize=1;strokeColor=none;fillColor=none;" vertex="1" parent="1">
          <mxGeometry x="260" y="360" width="40" height="20" as="geometry" />
        </mxCell>
      </root>
    </mxGraphModel>
  </diagram>
</mxfile>
